# 3ds Max Wavefront OBJ Exporter v0.97b - (c)2007 guruware
# File Created: 13.08.2021 19:07:07

mtllib 1.mtl

#
# object Cylinder001
#

v  0.0000 18.8896 0.0000
v  0.0673 18.8896 0.0323
v  0.0832 18.8896 0.0000
v  0.0257 18.8896 0.0523
v  -0.0257 18.8896 0.0523
v  -0.0673 18.8896 0.0323
v  -0.0832 18.8896 0.0000
v  -0.0673 18.8896 -0.0323
v  -0.0257 18.8896 -0.0523
v  0.0257 18.8896 -0.0523
v  0.0673 18.8896 -0.0323
v  0.1347 18.8896 0.0646
v  0.1665 18.8896 0.0000
v  0.0514 18.8896 0.1045
v  -0.0514 18.8896 0.1045
v  -0.1347 18.8896 0.0646
v  -0.1665 18.8896 0.0000
v  -0.1347 18.8896 -0.0646
v  -0.0514 18.8896 -0.1045
v  0.0514 18.8896 -0.1045
v  0.1347 18.8896 -0.0646
v  2.3370 12.0692 0.0000
v  2.3369 12.0692 0.1601
v  6.3385 0.4340 0.0617
v  6.3395 0.4340 -0.0000
v  0.4354 6.5763 1.1012
v  1.1398 6.5763 0.6806
v  -0.4354 6.5763 1.1012
v  -1.1398 6.5763 0.6806
v  -2.3369 12.0692 0.1601
v  -2.3370 12.0692 0.0000
v  -6.3395 0.4340 -0.0000
v  -6.3385 0.4340 0.0617
v  -2.3369 12.0692 -0.1601
v  -6.3385 0.4340 -0.0617
v  -0.4354 6.5763 -1.1012
v  -1.1398 6.5763 -0.6806
v  0.4354 6.5763 -1.1012
v  1.1398 6.5763 -0.6806
v  2.3369 12.0692 -0.1601
v  6.3385 0.4340 -0.0617
v  1.7394 -7.2293 -0.0000
v  1.4072 -7.2293 1.0224
v  0.7036 -7.2293 0.5112
v  0.8697 -7.2293 -0.0000
v  0.5375 -7.2293 1.6543
v  0.2688 -7.2293 0.8271
v  -0.5375 -7.2293 1.6543
v  -0.2688 -7.2293 0.8271
v  -1.4072 -7.2293 1.0224
v  -0.7036 -7.2293 0.5112
v  -1.7394 -7.2293 -0.0000
v  -0.8697 -7.2293 -0.0000
v  -1.4072 -7.2293 -1.0224
v  -0.7036 -7.2293 -0.5112
v  -0.5375 -7.2293 -1.6543
v  -0.2688 -7.2293 -0.8272
v  0.5375 -7.2293 -1.6543
v  0.2688 -7.2293 -0.8272
v  1.4072 -7.2293 -1.0224
v  0.7036 -7.2293 -0.5112
v  0.0000 -7.2293 -0.0000
v  1.4088 6.5763 -0.0000
v  -1.4088 6.5763 -0.0000
# 64 vertices

vn 0.0000 1.0000 0.0000
vn -0.0000 1.0000 0.0000
vn 0.4614 0.7065 0.5366
vn 0.6810 0.7322 0.0000
vn 0.1589 0.6917 0.7044
vn -0.1589 0.6917 0.7044
vn -0.4614 0.7065 0.5366
vn -0.6810 0.7322 0.0000
vn -0.4614 0.7065 -0.5366
vn -0.1589 0.6917 -0.7044
vn 0.1589 0.6917 -0.7044
vn 0.4614 0.7066 -0.5366
vn 0.9493 0.3143 0.0000
vn 0.3406 0.1109 -0.9336
vn 0.4169 -0.7448 0.5211
vn 0.4906 -0.8714 -0.0000
vn 0.2663 0.0631 0.9618
vn 0.4392 -0.0624 0.8962
vn -0.2663 0.0631 0.9618
vn -0.4392 -0.0624 0.8962
vn -0.3406 0.1109 -0.9336
vn -0.9493 0.3143 0.0000
vn -0.4906 -0.8714 -0.0000
vn -0.4169 -0.7448 0.5211
vn -0.3406 0.1109 0.9336
vn -0.4169 -0.7448 -0.5211
vn -0.2663 0.0631 -0.9618
vn -0.4392 -0.0624 -0.8962
vn 0.2663 0.0631 -0.9618
vn 0.4392 -0.0624 -0.8962
vn 0.3406 0.1109 0.9336
vn 0.4169 -0.7448 -0.5211
vn 0.7727 -0.6347 -0.0000
vn 0.6259 -0.6324 0.4564
vn 0.0000 -1.0000 -0.0000
vn 0.2396 -0.6285 0.7400
vn -0.2396 -0.6285 0.7400
vn -0.6260 -0.6324 0.4564
vn -0.7727 -0.6347 -0.0000
vn -0.6260 -0.6324 -0.4564
vn -0.2396 -0.6285 -0.7400
vn 0.2396 -0.6285 -0.7400
vn 0.6260 -0.6324 -0.4564
vn 0.1189 -0.9929 -0.0000
vn -0.1189 -0.9929 -0.0000
# 45 vertex normals

vt 0.9899 0.0012 0.0000
vt 0.9865 0.0016 0.0000
vt 0.9859 0.0005 0.0000
vt 0.9883 0.0024 0.0000
vt 0.9904 0.0032 0.0000
vt 0.9922 0.0037 0.0000
vt 0.9934 0.0032 0.0000
vt 0.0066 0.9989 0.0000
vt 0.0099 0.9984 0.0000
vt 0.0105 0.9995 0.0000
vt 0.0082 0.9975 0.0000
vt 0.0061 0.9968 0.0000
vt 0.0043 0.9964 0.0000
vt 0.0031 0.9968 0.0000
vt 0.9835 0.0029 0.0000
vt 0.9818 0.0013 0.0000
vt 0.9870 0.0036 0.0000
vt 0.9906 0.0049 0.0000
vt 0.9937 0.0066 0.0000
vt 0.9961 0.0065 0.0000
vt 0.0128 0.9971 0.0000
vt 0.0146 0.9987 0.0000
vt 0.0094 0.9963 0.0000
vt 0.0060 0.9950 0.0000
vt 0.0029 0.9935 0.0000
vt 0.0005 0.9936 0.0000
vt 0.8053 0.2113 0.0000
vt 0.8100 0.2152 0.0000
vt 0.5045 0.5725 0.0000
vt 0.5037 0.5729 0.0000
vt 0.8107 0.4394 0.0000
vt 0.7776 0.4279 0.0000
vt 0.8456 0.4521 0.0000
vt 0.8783 0.4646 0.0000
vt 0.9903 0.2808 0.0000
vt 0.9964 0.2808 0.0000
vt 0.9950 0.7517 0.0000
vt 0.9947 0.7508 0.0000
vt 0.1871 0.7857 0.0000
vt 0.1823 0.7819 0.0000
vt 0.4812 0.4193 0.0000
vt 0.4820 0.4189 0.0000
vt 0.1813 0.5587 0.0000
vt 0.2110 0.5685 0.0000
vt 0.1500 0.5475 0.0000
vt 0.1208 0.5363 0.0000
vt 0.0079 0.7196 0.0000
vt 0.0018 0.7195 0.0000
vt 0.0058 0.2490 0.0000
vt 0.0061 0.2497 0.0000
vt 0.5713 0.9298 0.0000
vt 0.6054 0.9286 0.0000
vt 0.6108 0.9604 0.0000
vt 0.5933 0.9686 0.0000
vt 0.6352 0.9322 0.0000
vt 0.6303 0.9605 0.0000
vt 0.6633 0.9424 0.0000
vt 0.6489 0.9672 0.0000
vt 0.6885 0.9588 0.0000
vt 0.6639 0.9797 0.0000
vt 0.7138 0.9816 0.0000
vt 0.6720 0.9972 0.0000
vt 0.4237 0.0689 0.0000
vt 0.3888 0.0701 0.0000
vt 0.3814 0.0381 0.0000
vt 0.3989 0.0295 0.0000
vt 0.3569 0.0661 0.0000
vt 0.3611 0.0379 0.0000
vt 0.3269 0.0554 0.0000
vt 0.3415 0.0310 0.0000
vt 0.2997 0.0383 0.0000
vt 0.3257 0.0182 0.0000
vt 0.2734 0.0152 0.0000
vt 0.3176 0.0005 0.0000
vt 0.6293 0.9922 0.0000
vt 0.3613 0.0063 0.0000
vt 0.7656 0.4367 0.0000
vt 0.8819 0.4791 0.0000
vt 0.2211 0.5592 0.0000
vt 0.1190 0.5227 0.0000
# 80 texture coords

o Cylinder001
g Cylinder001
usemtl wire_006135006
s 1
f 1/1/1 2/2/2 3/3/1 
f 1/1/1 4/4/1 2/2/2 
f 1/1/1 5/5/1 4/4/1 
f 1/1/1 6/6/1 5/5/1 
f 1/1/1 7/7/1 6/6/1 
f 1/8/1 8/9/1 7/10/1 
f 1/8/1 9/11/1 8/9/1 
f 1/8/1 10/12/2 9/11/1 
f 1/8/1 11/13/2 10/12/2 
f 1/8/1 3/14/1 11/13/2 
f 3/3/1 2/2/2 12/15/3 13/16/4 
f 2/2/2 4/4/1 14/17/5 12/15/3 
f 4/4/1 5/5/1 15/18/6 14/17/5 
f 5/5/1 6/6/1 16/19/7 15/18/6 
f 6/6/1 7/7/1 17/20/8 16/19/7 
f 7/10/1 8/9/1 18/21/9 17/22/8 
f 8/9/1 9/11/1 19/23/10 18/21/9 
f 9/11/1 10/12/2 20/24/11 19/23/10 
f 10/12/2 11/13/2 21/25/12 20/24/11 
f 11/13/2 3/14/1 13/26/4 21/25/12 
s 8
f 22/27/13 23/28/14 24/29/15 25/30/16 
f 12/15/3 14/17/5 26/31/17 27/32/18 
f 14/17/5 15/18/6 28/33/19 26/31/17 
f 15/18/6 16/19/7 29/34/20 28/33/19 
f 30/35/21 31/36/22 32/37/23 33/38/24 
f 31/39/22 34/40/25 35/41/26 32/42/23 
f 18/21/9 19/23/10 36/43/27 37/44/28 
f 19/23/10 20/24/11 38/45/29 36/43/27 
f 20/24/11 21/25/12 39/46/30 38/45/29 
f 40/47/31 22/48/13 25/49/16 41/50/32 
s 1
f 42/51/33 43/52/34 44/53/35 45/54/35 
f 43/52/34 46/55/36 47/56/35 44/53/35 
f 46/55/36 48/57/37 49/58/35 47/56/35 
f 48/57/37 50/59/38 51/60/35 49/58/35 
f 50/59/38 52/61/39 53/62/35 51/60/35 
f 52/63/39 54/64/40 55/65/35 53/66/35 
f 54/64/40 56/67/41 57/68/35 55/65/35 
f 56/67/41 58/69/42 59/70/35 57/68/35 
f 58/69/42 60/71/43 61/72/35 59/70/35 
f 60/71/43 42/73/33 45/74/35 61/72/35 
f 62/75/35 45/54/35 44/53/35 
f 62/75/35 44/53/35 47/56/35 
f 62/75/35 47/56/35 49/58/35 
f 62/75/35 49/58/35 51/60/35 
f 62/75/35 51/60/35 53/62/35 
f 62/76/35 53/66/35 55/65/35 
f 62/76/35 55/65/35 57/68/35 
f 62/76/35 57/68/35 59/70/35 
f 62/76/35 59/70/35 61/72/35 
f 62/76/35 61/72/35 45/74/35 
s 8
f 27/32/18 43/52/34 42/51/33 63/77/44 
f 26/31/17 46/55/36 43/52/34 27/32/18 
f 28/33/19 48/57/37 46/55/36 26/31/17 
f 29/34/20 50/59/38 48/57/37 28/33/19 
f 64/78/45 52/61/39 50/59/38 29/34/20 
f 37/44/28 54/64/40 52/63/39 64/79/45 
f 36/43/27 56/67/41 54/64/40 37/44/28 
f 38/45/29 58/69/42 56/67/41 36/43/27 
f 39/46/30 60/71/43 58/69/42 38/45/29 
f 63/80/44 42/73/33 60/71/43 39/46/30 
s off
f 13/16/4 12/15/3 23/28/14 22/27/13 
f 12/15/3 27/32/18 24/29/15 23/28/14 
f 27/32/18 63/77/44 25/30/16 24/29/15 
f 63/80/44 39/46/30 41/50/32 25/49/16 
f 39/46/30 21/25/12 40/47/31 41/50/32 
f 21/25/12 13/26/4 22/48/13 40/47/31 
f 16/19/7 17/20/8 31/36/22 30/35/21 
f 17/22/8 18/21/9 34/40/25 31/39/22 
f 18/21/9 37/44/28 35/41/26 34/40/25 
f 37/44/28 64/79/45 32/42/23 35/41/26 
f 64/78/45 29/34/20 33/38/24 32/37/23 
f 29/34/20 16/19/7 30/35/21 33/38/24 
# 52 polygons - 20 triangles

